<mxfile host="app.diagrams.net" modified="2023-11-14T18:40:59.879Z" agent="Mozilla/5.0 (Windows NT 10.0; Win64; x64) AppleWebKit/537.36 (KHTML, like Gecko) Chrome/119.0.0.0 Safari/537.36" version="21.8.2" etag="LGx4T3AHUrWAsLlyFBD_" type="github">
  <diagram name="Page-1" id="ip8meX1KslU4owr9LWMp">
    <mxGraphModel>
      <root>
        <mxCell id="0" />
        <mxCell id="1" parent="0" />
      </root>
    </mxGraphModel>
  </diagram>
</mxfile>
